<svg xmlns="http://www.w3.org/2000/svg" width="300" height="300" viewBox="0 0 300 300">
  <rect width="300" height="300" rx="40" fill="#f7dce7"/>
  <circle cx="150" cy="120" r="70" fill="#f2c8a0"/>
  <path d="M90 260c8-55 46-85 60-85s52 30 60 85" fill="#4f3b2f"/>
  <path d="M95 130c0-34 24-62 55-62s55 28 55 62c0 22-10 42-26 53-8 6-18 10-29 10s-21-4-29-10c-16-11-26-31-26-53z" fill="#2d1f17"/>
  <path d="M115 112c10-22 27-36 43-36 9 0 18 4 24 12-10 2-20 9-27 20-9 12-12 24-14 38-10-5-18-14-26-34z" fill="#2d1f17"/>
  <rect x="95" y="205" width="110" height="60" rx="18" fill="#8e5d7b"/>
  <rect x="110" y="220" width="80" height="23" rx="10" fill="#ffffff" opacity="0.8"/>
</svg>